<svg width="128" height="128" viewBox="0 0 128 128" fill="none" xmlns="http://www.w3.org/2000/svg" role="img" aria-label="GitHub logo">
  <rect width="128" height="128" rx="32" fill="#0D1117"/>
  <path d="M64 18C38.594 18 18 38.83 18 64.57c0 20.59 13.4 38.05 31.99 44.22 2.34.44 3.2-1.04 3.2-2.32 0-1.14-.04-4.93-.06-8.95-13.03 2.9-15.78-5.6-15.78-5.6-2.13-5.55-5.2-7.03-5.2-7.03-4.25-2.98.33-2.92.33-2.92 4.7.34 7.16 4.92 7.16 4.92 4.18 7.28 10.97 5.18 13.64 3.96.42-3.06 1.63-5.18 2.96-6.37-10.41-1.2-21.35-5.33-21.35-23.72 0-5.24 1.82-9.52 4.82-12.88-.48-1.2-2.09-6.06.46-12.63 0 0 3.94-1.29 12.92 4.92A44.18 44.18 0 0 1 64 39.9c4 .02 8.02.55 11.78 1.62 8.97-6.21 12.9-4.92 12.9-4.92 2.56 6.57.95 11.43.47 12.63 3.01 3.36 4.8 7.64 4.8 12.88 0 18.43-10.96 22.5-21.39 23.68 1.67 1.46 3.16 4.32 3.16 8.71 0 6.29-.06 11.36-.06 12.91 0 1.29.86 2.78 3.23 2.31C96.59 102.6 110 85.15 110 64.57 110 38.83 89.41 18 64 18Z" fill="#58A6FF"/>
</svg>
